<svg width="512" height="512" viewBox="0 0 512 512" xmlns="http://www.w3.org/2000/svg">
  <defs>
    <linearGradient id="gradient" x1="0%" y1="0%" x2="100%" y2="100%">
      <stop offset="0%" style="stop-color:#3b82f6;stop-opacity:1" />
      <stop offset="100%" style="stop-color:#1d4ed8;stop-opacity:1" />
    </linearGradient>
  </defs>
  
  <!-- Background -->
  <rect width="512" height="512" rx="90" ry="90" fill="url(#gradient)"/>
  
  <!-- Main Icon Shape -->
  <g transform="translate(128,128)">
    <!-- Letter S -->
    <path d="M50 50 Q50 20 80 20 L150 20 Q180 20 180 50 L180 80 Q180 110 150 110 L100 110 Q80 110 80 130 L80 150 Q80 170 100 170 L170 170 Q200 170 200 200 L200 230 Q200 256 170 256 L80 256 Q50 256 50 230 L50 200" 
          fill="white" 
          stroke="none" 
          stroke-width="8"/>
  </g>
  
  <!-- Accent -->
  <circle cx="380" cy="130" r="25" fill="white" opacity="0.8"/>
  <circle cx="380" cy="380" r="15" fill="white" opacity="0.6"/>
</svg>